<svg width="14" height="14" viewBox="0 0 14 14" fill="none" xmlns="http://www.w3.org/2000/svg">
<path d="M6.66667 0C2.98667 0 0 2.98667 0 6.66667C0 10.3467 2.98667 13.3333 6.66667 13.3333C10.3467 13.3333 13.3333 10.3467 13.3333 6.66667C13.3333 2.98667 10.3467 0 6.66667 0ZM9 7.16667H5.54L6.68667 8.31333C6.88 8.50667 6.88 8.82667 6.68667 9.02C6.58667 9.12 6.46 9.16667 6.33333 9.16667C6.20667 9.16667 6.08 9.12 5.98 9.02L3.98 7.02C3.78667 6.82667 3.78667 6.50667 3.98 6.31333L5.98 4.31333C6.17333 4.12 6.49333 4.12 6.68667 4.31333C6.88 4.50667 6.88 4.82667 6.68667 5.02L5.54 6.16667H9C9.27333 6.16667 9.5 6.39333 9.5 6.66667C9.5 6.94 9.27333 7.16667 9 7.16667Z" fill="white"/>
</svg>
