<svg width="12" height="17" viewBox="0 0 12 17" fill="none" xmlns="http://www.w3.org/2000/svg">
<path d="M5.86667 0C3.68333 0 1.90833 1.775 1.90833 3.95833C1.90833 6.1 3.58333 7.83333 5.76667 7.90833C5.83333 7.9 5.9 7.9 5.95 7.90833C5.96667 7.90833 5.975 7.90833 5.99167 7.90833C6 7.90833 6 7.90833 6.00833 7.90833C8.14167 7.83333 9.81667 6.1 9.825 3.95833C9.825 1.775 8.05 0 5.86667 0Z" fill="#0F0F0F"/>
<path d="M10.1 10.125C7.775 8.575 3.98333 8.575 1.64167 10.125C0.583333 10.8333 0 11.7917 0 12.8167C0 13.8417 0.583333 14.7917 1.63333 15.4917C2.8 16.275 4.33333 16.6667 5.86667 16.6667C7.4 16.6667 8.93333 16.275 10.1 15.4917C11.15 14.7833 11.7333 13.8333 11.7333 12.8C11.725 11.775 11.15 10.825 10.1 10.125Z" fill="#0F0F0F"/>
</svg>
