<svg width="17" height="17" viewBox="0 0 17 17" fill="none" xmlns="http://www.w3.org/2000/svg">
<path d="M15.8332 5.00835L10.3749 0.641682C9.30824 -0.208318 7.64157 -0.216651 6.58324 0.633349L1.1249 5.00835C0.341571 5.63335 -0.133429 6.88335 0.0332373 7.86668L1.08324 14.15C1.3249 15.5584 2.63324 16.6667 4.05824 16.6667H12.8916C14.2999 16.6667 15.6332 15.5333 15.8749 14.1417L16.9249 7.85835C17.0749 6.88335 16.5999 5.63335 15.8332 5.00835ZM9.0999 13.3333C9.0999 13.675 8.81657 13.9583 8.4749 13.9583C8.13324 13.9583 7.8499 13.675 7.8499 13.3333V10.8333C7.8499 10.4917 8.13324 10.2083 8.4749 10.2083C8.81657 10.2083 9.0999 10.4917 9.0999 10.8333V13.3333Z" fill="#0F0F0F"/>
</svg>
