<svg width="17" height="18" viewBox="0 0 17 18" fill="none" xmlns="http://www.w3.org/2000/svg">
<path d="M16.6667 6.01732V2.23398C16.6667 1.05898 16.1333 0.583984 14.8083 0.583984H11.4417C10.1167 0.583984 9.58333 1.05898 9.58333 2.23398V6.00898C9.58333 7.19232 10.1167 7.65898 11.4417 7.65898H14.8083C16.1333 7.66732 16.6667 7.19232 16.6667 6.01732Z" fill="#0F0F0F"/>
<path d="M16.6667 15.3923V12.0257C16.6667 10.7007 16.1333 10.1673 14.8083 10.1673H11.4417C10.1167 10.1673 9.58333 10.7007 9.58333 12.0257V15.3923C9.58333 16.7173 10.1167 17.2507 11.4417 17.2507H14.8083C16.1333 17.2507 16.6667 16.7173 16.6667 15.3923Z" fill="#0F0F0F"/>
<path d="M7.08333 6.01732V2.23398C7.08333 1.05898 6.55 0.583984 5.225 0.583984H1.85833C0.533333 0.583984 0 1.05898 0 2.23398V6.00898C0 7.19232 0.533333 7.65898 1.85833 7.65898H5.225C6.55 7.66732 7.08333 7.19232 7.08333 6.01732Z" fill="#0F0F0F"/>
<path d="M7.08333 15.3923V12.0257C7.08333 10.7007 6.55 10.1673 5.225 10.1673H1.85833C0.533333 10.1673 0 10.7007 0 12.0257V15.3923C0 16.7173 0.533333 17.2507 1.85833 17.2507H5.225C6.55 17.2507 7.08333 16.7173 7.08333 15.3923Z" fill="#0F0F0F"/>
</svg>
